<svg xmlns="http://www.w3.org/2000/svg" width="461.081" height="106.877" viewBox="0 0 461.081 106.877">
  <g id="divano-logo" transform="translate(-48.47 -31.623)">
    <g id="Path_3" data-name="Path 3" transform="translate(48.47 138.5) rotate(-90)" fill="#fff">
      <path d="M 103.1667098999023 125.4240036010742 L 3.000011205673218 125.4240036010742 L 3.000011205673218 52.66228485107422 L 3.035211086273193 52.66228485107422 L 3.003011226654053 49.62728500366211 C 3.001051187515259 49.45892715454102 3.000011205673218 49.29076385498047 3.000011205673218 49.12196731567383 C 3.000011205673218 42.92390441894531 4.31217098236084 36.91042709350586 6.900071144104004 31.24856567382813 C 9.407891273498535 25.7618465423584 13.00293159484863 20.82976531982422 17.58531188964844 16.58934593200684 C 22.18423080444336 12.33360576629639 27.54347038269043 8.990825653076172 33.51419067382813 6.653865814208984 C 39.70865249633789 4.229345798492432 46.29251098632813 3.000005722045898 53.08288955688477 3.000005722045898 C 59.87348937988281 3.000005722045898 66.45755004882813 4.229345798492432 72.65213012695313 6.653885841369629 C 78.62297058105469 8.990845680236816 83.98233032226563 12.33362579345703 88.58131408691406 16.58936500549316 C 93.16373443603516 20.82978630065918 96.7587890625 25.7618465423584 99.26664733886719 31.24856567382813 C 101.8545303344727 36.91042709350586 103.1667098999023 42.92390441894531 103.1667098999023 49.12196731567383 C 103.1667098999023 49.29076385498047 103.1656494140625 49.45892715454102 103.163688659668 49.62728500366211 L 103.128288269043 52.66228485107422 L 103.1667098999023 52.66228485107422 L 103.1667098999023 125.4240036010742 Z" stroke="none"/>
      <path d="M 100.1667022705078 122.4240036010742 L 100.1667022705078 49.12196350097656 C 100.1667022705078 25.34444046020508 79.04498291015625 6.000005722045898 53.08289337158203 6.000005722045898 C 27.12130737304688 6.000005722045898 6.000003337860107 25.34444046020508 6.000003337860107 49.66228866577148 L 6.000003337860107 122.4240036010742 L 100.1667022705078 122.4240036010742 M 106.1667022705078 128.4240112304688 L 3.309166913822992e-06 128.4240112304688 L 3.309166913822992e-06 49.66228866577148 L 0.003198961261659861 49.66228866577148 C 0.001112004858441651 49.48226547241211 3.309166913822992e-06 49.30244064331055 3.309166913822992e-06 49.12196350097656 C 3.309166913822992e-06 21.9925708770752 23.76630783081055 5.615234385913936e-06 53.08289337158203 5.615234385913936e-06 C 82.40039825439453 5.615234385913936e-06 106.1667022705078 21.9925708770752 106.1667022705078 49.12196350097656 C 106.1667022705078 49.30244064331055 106.1655883789063 49.48226547241211 106.1635055541992 49.66228866577148 L 106.1667022705078 49.66228866577148 L 106.1667022705078 128.4240112304688 Z" stroke="none" fill="#efb700"/>
    </g>
    <g id="Path_4" data-name="Path 4" transform="translate(58.688 127.5) rotate(-90)" fill="#fff">
      <path d="M 81.16645812988281 104.1652297973633 L 3.000008583068848 104.1652297973633 L 3.000008583068848 38.14017486572266 L 3.001142024993896 38.00964736938477 C 3.039991855621338 33.31154632568359 4.085792064666748 28.75591468811035 6.10949182510376 24.46928215026855 C 8.075725555419922 20.30436515808105 10.87949180603027 16.56066513061523 14.44290828704834 13.34214782714844 C 18.02770805358887 10.10434818267822 22.20039176940918 7.561131477355957 26.84505844116211 5.783148288726807 C 31.66937446594238 3.936381578445435 36.79610824584961 2.999998331069946 42.08285903930664 2.999998331069946 C 47.36979293823242 2.999998331069946 52.49667358398438 3.936381578445435 57.32110977172852 5.783148288726807 C 61.96585845947266 7.561131477355957 66.13861083984375 10.10434818267822 69.72345733642578 13.34216499328613 C 73.28692626953125 16.56066513061523 76.09070587158203 20.30436515808105 78.05696105957031 24.46928215026855 C 80.08065795898438 28.75589752197266 81.12645721435547 33.31154632568359 81.16530609130859 38.00964736938477 L 81.16645812988281 38.14873123168945 L 81.16645812988281 38.27686309814453 L 81.16645812988281 104.1652297973633 Z" stroke="none"/>
      <path d="M 78.16635131835938 101.1652374267578 L 78.1654052734375 38.03447341918945 C 78.01934814453125 20.3705940246582 61.83278656005859 5.99999475479126 42.08286666870117 5.99999475479126 C 22.33370590209961 5.99999475479126 6.146905422210693 20.37075424194336 6.00000524520874 37.98485565185547 L 6.00000524520874 101.1652374267578 L 78.16635131835938 101.1652374267578 M 84.16644287109375 107.1652374267578 L 5.250244157650741e-06 107.1652374267578 L 5.250244157650741e-06 37.98485565185547 L 0.001245250226929784 37.98485565185547 C 0.1749252527952194 16.98057556152344 18.94926452636719 -5.101318492961582e-06 42.08286666870117 -5.101318492961582e-06 C 65.21718597412109 -5.101318492961582e-06 83.99152374267578 16.98057556152344 84.16520690917969 37.98485565185547 L 84.16644287109375 37.98485565185547 L 84.16644287109375 38.27685546875 L 84.16644287109375 107.1652374267578 Z" stroke="none" fill="#efb700"/>
    </g>
    <path id="Path_1" data-name="Path 1" d="M6.566,0V-57.416h20.34q30.59,0,30.59,27.987,0,13.413-8.348,21.421T26.906,0ZM19.5-46.886v36.4h6.406q8.408,0,13.193-5.045t4.785-13.733q0-8.208-4.745-12.913t-13.313-4.7ZM79.958,0H67.025V-57.416H79.958Zm60.859-57.416L121.038,0H106.384L86.845-57.416h13.934L112.75-17.457a28.618,28.618,0,0,1,1.161,5.726h.24a32.362,32.362,0,0,1,1.241-5.886l11.892-39.8ZM193.949,0H179.855l-4.084-12.772h-20.42L151.308,0H137.294l20.9-57.416h15.335ZM172.809-22.7,166.643-42a25.149,25.149,0,0,1-.961-5.165h-.32a21.9,21.9,0,0,1-1,5L158.114-22.7ZM252.767,0H239.714L216.051-36.075a52.17,52.17,0,0,1-2.883-4.765h-.16q.32,3.043.32,9.289V0H201.116V-57.416H215.05l22.782,34.954q1.562,2.362,2.883,4.685h.16a61.388,61.388,0,0,1-.32-7.888V-57.416h12.212Zm37.4,1q-12.332,0-20.1-8.028T262.3-27.947q0-13.613,7.888-22.021t20.9-8.408q12.292,0,19.879,8.048t7.587,21.221q0,13.533-7.868,21.821T290.163,1Zm.561-48.247a13.018,13.018,0,0,0-10.811,5.1q-4,5.1-4,13.513,0,8.528,4,13.493A12.829,12.829,0,0,0,290.4-10.17a12.958,12.958,0,0,0,10.61-4.825q3.924-4.825,3.924-13.393,0-8.929-3.8-13.894A12.4,12.4,0,0,0,290.724-47.246Z" transform="translate(191 90)"/>
    <path id="Path_2" data-name="Path 2" d="M19.879-23.443H9.75V-16.4h9.309v5.245H9.75V0H3.283V-28.708h16.6ZM48.007-12.432Q48.007.5,35.955.5,24.264.5,24.264-12.132V-28.708H30.75v16.656q0,6.967,5.445,6.967,5.345,0,5.345-6.727v-16.9h6.466ZM78.336,0H70.909L66.445-7.387q-.5-.841-.961-1.5a8.342,8.342,0,0,0-.931-1.131,3.7,3.7,0,0,0-.981-.721,2.49,2.49,0,0,0-1.111-.25H60.719V0H54.253V-28.708H64.5q10.45,0,10.45,7.808a8.085,8.085,0,0,1-.46,2.773,7.7,7.7,0,0,1-1.3,2.292,8.249,8.249,0,0,1-2.032,1.762,10.479,10.479,0,0,1-2.653,1.161v.08a4.114,4.114,0,0,1,1.241.651,8.888,8.888,0,0,1,1.161,1.051A14.664,14.664,0,0,1,71.98-9.84q.51.691.931,1.351ZM60.719-23.863v7.988h2.8a4.647,4.647,0,0,0,3.343-1.2A4.009,4.009,0,0,0,68.146-20.1q0-3.764-4.5-3.764ZM106.844,0h-6.526L88.486-18.038a26.085,26.085,0,0,1-1.441-2.382h-.08q.16,1.521.16,4.645V0H81.019V-28.708h6.967L99.377-11.231q.781,1.181,1.441,2.342h.08a30.694,30.694,0,0,1-.16-3.944V-28.708h6.106Zm13.033,0h-6.466V-28.708h6.466Zm26.686-23.443h-8.188V0h-6.486V-23.443h-8.148v-5.265h22.822ZM173.83-12.432Q173.83.5,161.778.5q-11.691,0-11.691-12.632V-28.708h6.486v16.656q0,6.967,5.445,6.967,5.345,0,5.345-6.727v-16.9h6.466ZM204.159,0h-7.427l-4.464-7.387q-.5-.841-.961-1.5a8.341,8.341,0,0,0-.931-1.131,3.7,3.7,0,0,0-.981-.721,2.49,2.49,0,0,0-1.111-.25h-1.742V0h-6.466V-28.708h10.25q10.45,0,10.45,7.808a8.085,8.085,0,0,1-.46,2.773,7.7,7.7,0,0,1-1.3,2.292,8.249,8.249,0,0,1-2.032,1.762,10.479,10.479,0,0,1-2.653,1.161v.08a4.114,4.114,0,0,1,1.241.651,8.888,8.888,0,0,1,1.161,1.051A14.663,14.663,0,0,1,197.8-9.84q.51.691.931,1.351ZM186.542-23.863v7.988h2.8a4.647,4.647,0,0,0,3.343-1.2,4.009,4.009,0,0,0,1.281-3.023q0-3.764-4.5-3.764ZM224.059,0H206.842V-28.708H223.4v5.265h-10.09v6.386H222.7v5.245h-9.389v6.566h10.75Z" transform="translate(194 137)" fill="#efb700"/>
    <g id="Path_5" data-name="Path 5" transform="translate(69.814 117.084) rotate(-90)" fill="#fff">
      <path d="M 60.33354949951172 81.59264373779297 L 3.000001430511475 81.59264373779297 L 3.000001430511475 30.11007881164551 L 3.000841379165649 30.00761604309082 C 3.029494762420654 26.37272262573242 3.800214767456055 22.84936141967773 5.291601181030273 19.53542900085449 C 6.738041400909424 16.32137489318848 8.799334526062012 13.43356227874756 11.41825485229492 10.95218849182129 C 14.04784107208252 8.460708618164063 17.10717391967773 6.504308700561523 20.51125526428223 5.137348651885986 C 24.04301452636719 3.719108581542969 27.79618835449219 3.000001907348633 31.66650772094727 3.000001907348633 C 35.53696060180664 3.000001907348633 39.29024124145508 3.719108581542969 42.82209396362305 5.137362003326416 C 46.22624206542969 6.504322052001953 49.28561401367188 8.460721969604492 51.91524124145508 10.95220184326172 C 54.53417587280273 13.43357563018799 56.59549331665039 16.32138824462891 58.04193496704102 19.53542900085449 C 59.53332138061523 22.84936141967773 60.30405426025391 26.37272262573242 60.33270645141602 30.00761604309082 L 60.33354949951172 30.11415481567383 L 60.33354949951172 30.21446800231934 L 60.33354949951172 81.59264373779297 Z" stroke="none"/>
      <path d="M 57.33347320556641 78.59263610839844 L 57.33279037475586 30.03127098083496 C 57.22834014892578 16.78038787841797 45.71449279785156 6.00000524520874 31.66650772094727 6.00000524520874 C 17.61904144287109 6.00000524520874 6.105008125305176 16.78053855895996 6.000008106231689 29.98397254943848 L 6.000008106231689 78.59263610839844 L 57.33347320556641 78.59263610839844 M 63.33355712890625 84.59263610839844 L 8.083089596766513e-06 84.59263610839844 L 8.083089596766513e-06 29.98397254943848 L 0.0009414164233021438 29.98397254943848 C 0.1316247433423996 13.40390491485596 14.25892448425293 5.202229658607394e-06 31.66650772094727 5.202229658607394e-06 C 49.07460784912109 5.202229658607394e-06 63.20190811157227 13.40390491485596 63.33260726928711 29.98397254943848 L 63.33355712890625 29.98397254943848 L 63.33355712890625 30.2144718170166 L 63.33355712890625 84.59263610839844 Z" stroke="none" fill="#efb700"/>
    </g>
    <g id="Path_6" data-name="Path 6" transform="translate(80.94 106.309) rotate(-90)" fill="#fff">
      <path d="M 38.78530502319336 59.67084503173828 L 3.000006198883057 59.67084503173828 L 3.000006198883057 22.30863380432129 L 3.000539541244507 22.23481369018555 C 3.036939382553101 17.05036926269531 4.939583778381348 12.1921911239624 8.358016967773438 8.555224418640137 C 11.72509479522705 4.972879886627197 16.17658424377441 3.000002145767212 20.8924732208252 3.000002145767212 C 25.60851669311523 3.000002145767212 30.06011772155762 4.972890853881836 33.42724990844727 8.555235862731934 C 36.84569549560547 12.19217967987061 38.74836349487305 17.05035781860352 38.78476333618164 22.23481369018555 L 38.78530502319336 22.31237411499023 L 38.78530502319336 22.38452529907227 L 38.78530502319336 59.67084503173828 Z" stroke="none"/>
      <path d="M 35.78523635864258 56.67085266113281 L 35.78482055664063 22.25586700439453 C 35.72190856933594 13.2923526763916 29.04122161865234 5.999995708465576 20.89246559143066 5.999995708465576 C 12.74402236938477 5.999995708465576 6.063236236572266 13.29248142242432 6.000007629394531 22.21375274658203 L 6.000007629394531 56.67085266113281 L 35.78523635864258 56.67085266113281 M 41.78530883789063 62.67085266113281 L 7.747104973532259e-06 62.67085266113281 L 7.747104973532259e-06 22.21375274658203 L 0.0006220327923074365 22.21375274658203 C 0.086850605905056 9.930338859558105 9.407550811767578 -4.148210791754536e-06 20.89246559143066 -4.148210791754536e-06 C 32.37773513793945 -4.148210791754536e-06 41.69845199584961 9.930338859558105 41.7846794128418 22.21375274658203 L 41.78530883789063 22.21375274658203 L 41.78530883789063 22.38452529907227 L 41.78530883789063 62.67085266113281 Z" stroke="none" fill="#efb700"/>
    </g>
  </g>
</svg>
