<svg xmlns="http://www.w3.org/2000/svg" xmlns:xlink="http://www.w3.org/1999/xlink" width="100" height="100" viewBox="0 0 100 100">
  <defs>
    <clipPath id="clip-icon-mediacabinet">
      <rect width="100" height="100"/>
    </clipPath>
  </defs>
  <g id="icon-mediacabinet" clip-path="url(#clip-icon-mediacabinet)">
    <path id="Path_3" data-name="Path 3" d="M289.294,351.784a1.155,1.155,0,0,1,.955.533,1.979,1.979,0,0,1,.355,1.154,1.929,1.929,0,0,1-.355,1.154,1.186,1.186,0,0,1-.955.533,1.155,1.155,0,0,1-.955-.533,2.053,2.053,0,0,1,0-2.309,1.156,1.156,0,0,1,.955-.533Zm30.392,12.143.289,4.906,2.642-.155.266-5.15,1.021-.178v-.311l-55.122,7.237-11.211-4.529v.6l.178.067v6.394h3l.733-4.884,6.371,2.575.111,6.416h2.975l1.021-6.371,47.73-6.616Zm4.24-1.621v-9.524l-31.546,2.42-.044,10.856,31.59-3.752Zm0-11.056v-8.858l-31.479-.422-.044,11.122,31.524-1.843Zm-32.7-9.3-21.6-.289-.111,27.128,21.6-2.575.111-24.264Zm-22.622-.289-11.011-.311V364.5l10.9,4.2.111-27.039Zm21.156,11.011a.521.521,0,0,0-.932,0,1.43,1.43,0,0,0,0,1.6.521.521,0,0,0,.932,0,1.316,1.316,0,0,0,.244-.8,1.27,1.27,0,0,0-.244-.8Z" transform="translate(-240.57 -309.35)" fill="#fff" fill-rule="evenodd"/>
    <g id="Ellipse_6" data-name="Ellipse 6" transform="translate(1 1)" fill="none" stroke="#fff" stroke-width="1">
      <circle cx="49" cy="49" r="49" stroke="none"/>
      <circle cx="49" cy="49" r="48.5" fill="none"/>
    </g>
  </g>
</svg>
