<svg xmlns="http://www.w3.org/2000/svg" xmlns:xlink="http://www.w3.org/1999/xlink" width="100" height="100" viewBox="0 0 100 100">
  <defs>
    <clipPath id="clip-icon-carpet">
      <rect width="100" height="100"/>
    </clipPath>
  </defs>
  <g id="icon-carpet" clip-path="url(#clip-icon-carpet)">
    <path id="Path_20" data-name="Path 20" d="M501.932,412.75c.969,0-7.644,41.7-8.12,41.679-12.839-.378-50.612-12.127-64.075-11.88-3.546.066-6.781-.345-10.36-.3-.41,0-.312-.1,0-.328,1.445-1,25.195-27.523,25.523-27.523C444.9,414.4,495.857,412.783,501.932,412.75Zm-35.7,7.585c5.615,2.118,7.585,1.954,14.661,2.693a16.13,16.13,0,0,0-3.234,10.114c-5.451-2.364-6.518-2.791-13-2.331a17.66,17.66,0,0,0,1.576-10.475ZM451,426.2c4.6.082,4.975-.558,10.393-2.3-1,3.711-.181,7.076.657,10.475-4.515-.361-5.4-.394-10.13,2.266A21.777,21.777,0,0,0,451,426.2Zm5.4-7.881c6.928.082,9.079-.772,17.255-2.545a17.517,17.517,0,0,0-1.346,5.828,32,32,0,0,1-5.894-1.708l-.821-.312.164.854a14.14,14.14,0,0,1,.016,5.122c-.066.361-.131.739-.214,1.1a24.746,24.746,0,0,0-4.121,1,12.7,12.7,0,0,1,.443-3.628l.23-.87-.87.279c-1.248.394-2.216.739-3.054,1.034l-.1.033a13.254,13.254,0,0,0-1.691-6.19Z" transform="translate(-410.991 -378.136)" fill-rule="evenodd"/>
    <g id="Ellipse_18" data-name="Ellipse 18" transform="translate(1 1)" fill="none" stroke="#000" stroke-width="1">
      <circle cx="49" cy="49" r="49" stroke="none"/>
      <circle cx="49" cy="49" r="48.5" fill="none"/>
    </g>
  </g>
</svg>
