<svg xmlns="http://www.w3.org/2000/svg" xmlns:xlink="http://www.w3.org/1999/xlink" width="100" height="100" viewBox="0 0 100 100">
  <defs>
    <clipPath id="clip-icon-kidsroom">
      <rect width="100" height="100"/>
    </clipPath>
  </defs>
  <g id="icon-kidsroom" clip-path="url(#clip-icon-kidsroom)">
    <path id="Path_21" data-name="Path 21" d="M536.73,339.583h1.449V341.6l14.972,3.423v-1.827h1.764v3.675l14.867-2.268a4.09,4.09,0,0,1-.609-.231h0a.573.573,0,0,1-.273-.273.648.648,0,0,1,0-.4.38.38,0,0,1,.1-.147l-.021-.063.252-.084a12.92,12.92,0,0,0,2.289-.987h0a13.992,13.992,0,0,1,2.1-.945V335.74h1.344v1.638l15.392,2.121v-1.281h1.575v41.62h-1.575v-6.783l-35.425,7.77v8.526h-1.764v-9.785L538.2,375.407V384h-1.449V339.583Zm32.548,24.443a13.4,13.4,0,0,0,2.331-1.008,13.012,13.012,0,0,1,2.415-1.05,10.716,10.716,0,0,1,1.722-.231,7.367,7.367,0,0,0,1.6-.21c.042,0,.063-.021.1-.021h0a8.592,8.592,0,0,1,2.058.441,8.46,8.46,0,0,0,1.7.4,14.008,14.008,0,0,1,4.284,1.281,13.286,13.286,0,0,1,3.591,2.5.241.241,0,0,1,0,.357.46.46,0,0,1-.1.063,20.609,20.609,0,0,1-2.73.777,24.326,24.326,0,0,0-3.108.9,7.718,7.718,0,0,0-1.05.567,8.018,8.018,0,0,1-1.386.735.29.29,0,0,1-.189,0h0a5.277,5.277,0,0,1-1.113-.693,7.6,7.6,0,0,0-.861-.567c-1.407-.693-2.793-1.281-4.284-1.911-.777-.336-1.6-.672-2.394-1.029a13.155,13.155,0,0,0-1.281-.42,11.634,11.634,0,0,1-1.3-.441.253.253,0,0,1-.126-.336c0-.021.063-.084.126-.1Zm-.063-.252a12.924,12.924,0,0,0,2.289-.987h0a13.986,13.986,0,0,1,2.1-.945v-4.935l-18.689,3.717v6.615l14.153-2.52a.441.441,0,0,1-.168-.231.648.648,0,0,1,0-.4.379.379,0,0,1,.1-.147l-.021-.063.231-.1Zm5.733-2.226.777-.063c.294-.021.609-.042.861-.063V358.4l-1.659-.252v3.4Zm2.478-.273h.042a8.144,8.144,0,0,1,2.121.462h0c.147.042.273.084.42.126v-2.94l-2.583-.4v2.751Zm3.4.8c.126.021.273.042.4.063a15.531,15.531,0,0,1,2.184.462v-3.15l-2.583-.4v3.024Zm3.4.8c.462.168.9.357,1.344.567a14.471,14.471,0,0,1,1.848,1.05v-4.41l-3.192-.5v3.3Zm4.032,2.226c.336.273.672.567.987.861a.492.492,0,0,1,.147.357.461.461,0,0,1-.147.357l-.084.084c-.021.021-.042.021-.063.042v.966l-.819.168-.819.168-5.376,1.05a7.158,7.158,0,0,1-1.26.651h0a.266.266,0,0,1-.126.021l-.021.063-.231-.1a4.431,4.431,0,0,1-.441-.231l-5.019.987-1.344.273h0l-18.689,3.675v2.94l35.425-7.77v-9.135l-2.058-.315V365.1Zm-18.983-21.419a13.391,13.391,0,0,0,2.331-1.008,13.012,13.012,0,0,1,2.415-1.05,10.716,10.716,0,0,1,1.722-.231,7.367,7.367,0,0,0,1.6-.21c.042,0,.063-.021.1-.021h0a8.592,8.592,0,0,1,2.058.441,8.46,8.46,0,0,0,1.7.4,14.008,14.008,0,0,1,4.284,1.281,13.286,13.286,0,0,1,3.591,2.5.241.241,0,0,1,0,.357.46.46,0,0,1-.1.063,24.4,24.4,0,0,1-2.73.777,24.326,24.326,0,0,0-3.108.9,7.718,7.718,0,0,0-1.05.567,8.018,8.018,0,0,1-1.386.735.29.29,0,0,1-.189,0h0a5.277,5.277,0,0,1-1.113-.693,5.387,5.387,0,0,0-.861-.546c-1.407-.693-2.793-1.281-4.284-1.911-.777-.336-1.6-.672-2.394-1.029a13.155,13.155,0,0,0-1.281-.42,11.622,11.622,0,0,1-1.3-.441.253.253,0,0,1-.126-.336c0-.042.063-.1.126-.126Zm-29.755,26.291.084-.021v-6.489l-1.449-.357v8.379l1.449.378V371l-.126-.042.042-.987Zm3.507,1.932-2.583-.672v.861l2.583.672V371.9Zm-2.583-2.1,2.583-.462V364.3l-2.583-.63V369.8Zm3.4-.609,2.583-.462v-3.591l-2.583-.63v4.683Zm2.583,3.591-2.583-.672v.84l2.583.672v-.84Zm.819-4.2,3.192-.567v-1.869l-3.192-.8v3.234Zm3.213,5.25-3.192-.84v.84l3.192.84v-.84Zm.819-5.964,1.869-.336v-.714l-1.869-.462v1.512Zm1.869,6.657-1.869-.483v.84l1.869.483v-.84Zm1.743-20.348V357.2h.021v.084l34.186-6.867,1.218-.231V340.78l-2.058-.315v4.326c.336.273.672.567.987.861a.492.492,0,0,1,.147.357.461.461,0,0,1-.147.357l-.084.084a.16.16,0,0,1-.1.042h0c-.273.1-.546.189-.8.273v.4l.84.189-.021,1.008-.819.147-.819.147-12.494,2.121-1.344.231-18.71,3.171Zm-15.35-4.956.084-.021v-6.3l-1.449-.357v8.484l1.449.378V350.25l-.147-.042.063-.987Zm3.486,2.016-2.583-.735v1.113l2.583.672v-1.05Zm-2.583-2.163,2.583-.4v-4.935l-2.583-.63v5.964Zm3.4-.5,2.583-.4v-3.528h.231l-2.814-.693v4.62Zm2.583,3.654-2.583-.735v1.029l2.583.672v-.966Zm.819-4.179,3.192-.483v-1.974l-3.192-.8v3.255Zm3.213,5.334-3.192-.924v.924l3.192.84v-.84Zm.819-5.943,1.869-.273v-.9l-1.869-.462v1.638Zm1.869,6.72-1.869-.525v.819l1.869.483v-.777Zm21.8-12.956.777-.063c.294-.021.609-.042.861-.063v-2.457l-1.659-.252V341.2Zm2.478-.273h.042a8.144,8.144,0,0,1,2.121.462h0c.147.042.273.084.42.126v-2.373l-2.583-.4v2.184Zm3.4.8c.126.021.273.042.4.063a15.522,15.522,0,0,1,2.184.462v-2.562h.1l-2.688-.42v2.457Zm3.4.8c.462.168.9.357,1.344.567a14.478,14.478,0,0,1,1.848,1.05V340.3h.021l-3.234-.5v2.73Zm6.111,11.066-15.392,3.045v.546L590.34,359.3v-5.712Zm-52.182,8.568,14.972,3.423v-6.447l-14.972-4.158v7.182Z" transform="translate(-514.73 -312.74)" fill-rule="evenodd"/>
    <g id="Ellipse_16" data-name="Ellipse 16" transform="translate(1 1)" fill="none" stroke="#000" stroke-width="1">
      <circle cx="49" cy="49" r="49" stroke="none"/>
      <circle cx="49" cy="49" r="48.5" fill="none"/>
    </g>
  </g>
</svg>
