<svg xmlns="http://www.w3.org/2000/svg" xmlns:xlink="http://www.w3.org/1999/xlink" width="100" height="100" viewBox="0 0 100 100">
  <defs>
    <clipPath id="clip-icon-bedroom">
      <rect width="100" height="100"/>
    </clipPath>
  </defs>
  <g id="icon-bedroom" clip-path="url(#clip-icon-bedroom)">
    <path id="Path_5" data-name="Path 5" d="M429.4,363.394l-.022-1.987c0-.447.2-.6.514-.6a4.013,4.013,0,0,1,1.585.424l15.206,6.5a1.644,1.644,0,0,1,.692.759,1.62,1.62,0,0,1,.179.849,12.4,12.4,0,0,0-.2,2.612L429.4,363.394ZM465.46,339.77l-39.41.648.357,30.947,8.262-.469,11.968,5.85.447,7.748,1.608.022.357-7.681,44.612-3.885.893,6.23h1.407l.045-10.606-48.341,4.175-.156-.022-18.778-8.887h0l-.022-2.411a1.08,1.08,0,0,1,1.139-1.25,4.724,4.724,0,0,1,1.853.469l14.96,6.386a1.369,1.369,0,0,1,.268.112l.112.045a4.128,4.128,0,0,0,1.25.268,3.441,3.441,0,0,0,.692,0c.022,0,.045-.022.067-.022h0a3.958,3.958,0,0,1,1.139-.223l42.357-2.9-25.767-10.226-.022-.022a9.956,9.956,0,0,0,2.322,4.622A54.157,54.157,0,0,0,449,360.647c.067-.2.156-.424.2-.625a88.4,88.4,0,0,0-18.041.156,15.431,15.431,0,0,0-.849-8.909,90.65,90.65,0,0,0,21.034-.357,14.016,14.016,0,0,0-.6,1.317l14.67-.424V339.77Zm29.474,28.424-.022-2.255a1.02,1.02,0,0,0-.737-.982l-.268-.112-43.675,2.992a1.947,1.947,0,0,0-1.92,1.116,2.365,2.365,0,0,0-.134.424,3.462,3.462,0,0,1-.089.469,15.784,15.784,0,0,0-.112,2.21l46.957-3.863Zm-46.957.067c-.022-.022-.022-.045-.045-.067l-.067-.134a.916.916,0,0,0,.246.022c-.045.067-.089.112-.134.179Zm2.1-13.821a10.533,10.533,0,0,0-.246,3.238,15.709,15.709,0,0,0,.246-3.238Z" transform="translate(-411.05 -311.77)" fill-rule="evenodd"/>
    <g id="Ellipse_8" data-name="Ellipse 8" transform="translate(1 1)" fill="none" stroke="#000" stroke-width="1">
      <circle cx="49" cy="49" r="49" stroke="none"/>
      <circle cx="49" cy="49" r="48.5" fill="none"/>
    </g>
  </g>
</svg>
