<svg xmlns="http://www.w3.org/2000/svg" xmlns:xlink="http://www.w3.org/1999/xlink" width="100" height="100" viewBox="0 0 100 100">
  <defs>
    <clipPath id="clip-icon-bookcase">
      <rect width="100" height="100"/>
    </clipPath>
  </defs>
  <g id="icon-bookcase" clip-path="url(#clip-icon-bookcase)">
    <path id="Path_11" data-name="Path 11" d="M374.22,337.23h52.985v52.985H374.22V337.23Zm30.116,9.9a3.654,3.654,0,0,1,1.754,3.392c0,1.962-1.131,3.554-2.539,3.554-1.385,0-2.539-1.592-2.539-3.554a3.578,3.578,0,0,1,1.869-3.438l-.923-4.408h3.162l-.785,4.454Zm-6.3,2.954a2.137,2.137,0,0,1,1.754,1.938,2.6,2.6,0,0,1-5.077,0,2.148,2.148,0,0,1,1.869-1.962l-.923-2.539H398.8l-.761,2.562ZM421.3,368.938c1.015.138,1.754.577,1.754,1.085,0,.623-1.131,1.154-2.515,1.154S418,370.669,418,370.023c0-.531.785-.969,1.869-1.108l-.923-1.408h3.138l-.785,1.431Zm-3.115-5.839c.831.554,1.431,2.146,1.431,4.039v.185h-.992l.185.277.692,1.062c0,.046-.023.115-.023.162a3.465,3.465,0,0,0-1.015.369,1.048,1.048,0,0,0-.6.854,1.078,1.078,0,0,0,.669.877,1.285,1.285,0,0,1-.946.462,1.678,1.678,0,0,1-1.338-.992l.023-.046a7.6,7.6,0,0,0,.462-2.723,8.386,8.386,0,0,0-.3-2.262,4.217,4.217,0,0,0-.415-.969,2.568,2.568,0,0,1,1.039-1.338l-.762-5.238h2.585l-.692,5.285Zm-2.746.946c.623.485,1.062,1.892,1.062,3.577,0,2.077-.692,3.738-1.523,3.738s-1.523-1.685-1.523-3.738c0-1.731.485-3.185,1.131-3.623l-.554-4.639h1.892l-.485,4.685Zm-2.954,23.077h12.254V388.3H412.482v-1.177Zm0-6.715h12.254v1.177H412.482v-1.177Zm-.969,1.8h12.254v1.177H411.513v-1.177Zm.946,1.731h12.254v1.177H412.459v-1.177Zm-.923,1.638H423.79v1.177H411.536v-1.177ZM398.059,384.1h9.485v4.292h-9.485V384.1Zm-.415-2.492h10.316v2.008H397.643v-2.008Zm-21.669-5.285,1.223-.277,2.792,12.069-1.223.277-2.792-12.069Zm6.485,2.7.946-.808,8.1,9.369-.946.808-8.1-9.369Zm-2.146,0,.946-.808,8.1,9.369-.946.808-8.1-9.369Zm-2.631-1.477,1.085-.6,6,10.846-1.085.6-6-10.846Zm22.408.369H407.8v2.862H400.09v-2.862Zm-.346-1.661h8.377v1.338h-8.377v-1.338Zm.462-16.685-1.154-.485-4.915,11.377,1.154.485,4.915-11.377Zm8.1-.692-1.223-.277-2.792,12.069,1.223.277,2.792-12.069Zm-2.146,0-1.223-.277-2.792,12.069,1.223.277,2.792-12.069Zm-1.938,0L403,358.6,400.2,370.669l1.223.277,2.792-12.069Zm-1.938.692-1.154-.485-4.915,11.377,1.154.485,4.915-11.377Zm-22.754,1.108h7.708v2.862h-7.708v-2.862Zm-.346-1.662h8.377v1.338h-8.377v-1.338Zm-.023,7.639h9.485v4.292h-9.485v-4.292Zm-.415-2.492h10.315v2.008H378.743v-2.008Zm46.893-22.131-1.223-.277-2.792,12.069,1.223.277,2.792-12.069Zm-41.654.692,1.154-.485,4.915,11.377-1.154.485-4.915-11.377Zm-8.123-.692,1.223-.277,2.792,12.069-1.223.277-2.792-12.069Zm2.146,0,1.223-.277,2.792,12.069-1.223.277L378,342.03Zm1.939,0,1.223-.277,2.792,12.069-1.223.277-2.792-12.069Zm1.961.692,1.154-.485,4.915,11.377-1.154.485L381.9,342.722Zm37.247,2.031-.946-.808-8.1,9.369.946.808,8.1-9.369Zm2.146,0-.946-.808-8.1,9.369.946.808,8.1-9.369Zm2.631-1.477-1.085-.6-6,10.846,1.085.6,6-10.846Zm-.692,47.424H424.6v2.031h-1.362V390.7Zm-46.408,0h1.362v2.031h-1.362V390.7Zm-1.638-17.654h16.362v16.362H375.189V373.046Zm0-34.685h16.362v16.362H375.189V338.361Zm17.354,0H408.9v16.362H392.543V338.361Zm17.331,0h16.362v16.362H409.874V338.361Zm-34.685,17.331h16.362v16.362H375.189V355.692Zm17.354,0H408.9v16.362H392.543V355.692Zm0,17.354H408.9v16.362H392.543V373.046Zm17.331,0h16.362v16.362H409.874V373.046Zm0-17.354h16.362v16.362H409.874V355.692Z" transform="translate(-350.22 -315.23)" fill-rule="evenodd"/>
    <g id="Ellipse_10" data-name="Ellipse 10" transform="translate(1 1)" fill="none" stroke="#000" stroke-width="1">
      <circle cx="49" cy="49" r="49" stroke="none"/>
      <circle cx="49" cy="49" r="48.5" fill="none"/>
    </g>
  </g>
</svg>
