<svg xmlns="http://www.w3.org/2000/svg" xmlns:xlink="http://www.w3.org/1999/xlink" width="100" height="100" viewBox="0 0 100 100">
  <defs>
    <clipPath id="clip-icon-armchair">
      <rect width="100" height="100"/>
    </clipPath>
  </defs>
  <g id="icon-armchair" clip-path="url(#clip-icon-armchair)">
    <path id="Path_4" data-name="Path 4" d="M157.752,367.737c.754,0,1.48,0,2.151.028.587.028,1.117.056,1.62.112v-.084a1.36,1.36,0,0,0-.028-.335c-.028-.112-.056-.251-.084-.363h0a1.4,1.4,0,0,0-.14-.363,2.773,2.773,0,0,0-.307-.559h0a3.807,3.807,0,0,0-.419-.587,5.015,5.015,0,0,0-.531-.559c-.2-.2-.391-.363-.614-.559a6.574,6.574,0,0,0-1.313-.81,12.026,12.026,0,0,0-1.7-.67c-.642-.2-1.313-.363-2.067-.531s-1.536-.279-2.4-.391c-.838-.112-1.732-.2-2.681-.279s-1.927-.14-2.933-.168c-1.033-.056-2.067-.056-3.156-.084H140.1c.084.5.14,1.033.223,1.564.084.67.14,1.369.2,2.067.056.726.112,1.452.14,2.207.028.642.056,1.313.056,1.955,1.005-.14,1.983-.279,2.989-.391,1.089-.14,2.151-.279,3.156-.391s2.011-.223,3.017-.307c.978-.084,1.927-.168,2.821-.251.894-.056,1.76-.112,2.625-.168s1.648-.084,2.43-.084Zm-10.809,1.592c-1.061.112-2.095.251-3.156.391-.978.112-2.011.251-3.072.419v2.374c.5.084,1.005.2,1.508.279.587.112,1.229.2,1.871.251a15.948,15.948,0,0,0,2.039.14c.7.028,1.424.028,2.207,0s1.564-.084,2.4-.2a23.276,23.276,0,0,0,2.6-.475,25.459,25.459,0,0,0,2.821-.782c.978-.307,1.983-.7,3.044-1.117a3.478,3.478,0,0,0,.559-.279,2.772,2.772,0,0,0,.475-.307l.419-.335a4.283,4.283,0,0,0,.335-.363c.056-.084.112-.14.168-.223s.084-.168.14-.251a1.361,1.361,0,0,0,.084-.2c-.475-.056-1.006-.084-1.536-.112-.67-.028-1.369-.028-2.095-.028-.754,0-1.536.028-2.374.056q-1.215.042-2.6.168c-.922.056-1.871.14-2.821.251s-1.955.223-3.017.335Zm-11.507-11.563a12.916,12.916,0,0,1,.307-1.508,2.34,2.34,0,0,1,.2-.531c-1.536.112-2.961.223-4.3.279-1.48.084-2.849.112-4.106.112-1.285,0-2.43-.028-3.519-.084s-2.067-.14-2.961-.251c-.67-.084-1.341-.168-2.011-.307s-1.369-.279-2.011-.475c-.67-.2-1.313-.419-1.955-.67a14.347,14.347,0,0,1-1.843-.95h0c-.307-.2-.559-.391-.838-.559-.251-.2-.475-.363-.67-.531a5.012,5.012,0,0,1-.559-.531,4.351,4.351,0,0,1-.447-.559,6.7,6.7,0,0,1-.363-.587,7.135,7.135,0,0,1-.307-.67c-.084-.223-.2-.5-.279-.782-.084-.223-.14-.447-.223-.726-.279.028-.559.084-.782.112a4.928,4.928,0,0,0-.81.2,3.442,3.442,0,0,0-.642.223,1.745,1.745,0,0,0-.447.279,2.28,2.28,0,0,0-.894,1.2l-.028.084c0,.028-.028.056-.028.084a6.152,6.152,0,0,0-.251.587,4.176,4.176,0,0,0-.2.7h0c-.056.251-.112.5-.168.782s-.112.559-.168.866-.112.615-.14.922c-.056.307-.084.642-.112.978s-.056.7-.084,1.061-.056.754-.084,1.117a62.88,62.88,0,0,0,.81,13.686,44.622,44.622,0,0,0,1.369,5.754,20.558,20.558,0,0,0,1.76,4.078l23.741,1.955h.056l.5.168c.168.056.335.112.475.168a3.049,3.049,0,0,0,.475.14,2.926,2.926,0,0,0,.475.112c.168.028.307.056.475.084a2.75,2.75,0,0,0,.475.056,2.708,2.708,0,0,0,.475.028h.335c-.168-2.262-.307-4.413-.447-6.424-.14-2.067-.223-4.022-.307-5.81s-.14-3.435-.168-4.944-.056-2.849-.028-4.078c0-1.005.056-1.927.084-2.737.028-.754.084-1.48.168-2.095Zm.754,13.882c.084,1.76.2,3.715.307,5.782.112,1.983.279,4.106.447,6.4l.084-.028c.112-.028.251-.056.391-.084.279-.056.559-.14.838-.2h.112l.363-.084a9.083,9.083,0,0,0,.419-1.117c.14-.419.251-.838.363-1.257s.2-.838.279-1.285.14-.866.2-1.313a10.8,10.8,0,0,0,.084-1.341c.028-.447.028-.922.028-1.4,0-.447-.028-.922-.056-1.424-.028-.475-.084-.95-.14-1.452h0v-.028h0c.056-1.369.056-2.877,0-4.413-.028-1.424-.14-2.9-.251-4.3a32.027,32.027,0,0,0-.5-3.6,18.092,18.092,0,0,0-.7-2.709,2.418,2.418,0,0,0-.2-.475c-.056-.14-.14-.279-.2-.419s-.14-.251-.2-.363-.14-.2-.2-.307c-.056-.084-.14-.168-.2-.251a1.293,1.293,0,0,0-.2-.2.585.585,0,0,0-.168-.112h0a.211.211,0,0,0-.112-.028c-.084,0-.168.112-.279.335a5.559,5.559,0,0,0-.363,1.313c-.112.614-.168,1.369-.251,2.262-.056.894-.084,1.955-.112,3.128-.028,1.2,0,2.542.028,4.05.028,1.48.084,3.1.168,4.916Zm-25.836,10-1.229-.112.028,1.424,1.257.307,1.229-.251v-1.257l-1.285-.112Zm26.227,2.681-1.089-.056.056,1.452,1.005.223,1.424-.307.084-1.62-1.48.307Zm21.674-3.463v1.2l.866.2,1.257-.251.028-1.424-1.285.168-.866.112Zm-14.217-7.011c-.642-.084-1.285-.168-1.9-.251-.475-.084-.95-.168-1.4-.251.028.363.056.726.084,1.061.028.475.056.922.056,1.4s0,.922-.028,1.4c-.028.447-.056.922-.112,1.369s-.112.894-.2,1.313c-.084.447-.168.866-.279,1.313-.112.419-.223.838-.363,1.257-.084.279-.2.531-.279.81q.964-.168,2.011-.335c.782-.14,1.62-.251,2.458-.391.922-.14,1.76-.279,2.486-.391.782-.112,1.62-.251,2.458-.363.81-.112,1.648-.223,2.486-.363.81-.112,1.648-.223,2.486-.335.866-.112,1.7-.223,2.458-.307l2.262-.251.028-.14c.028-.084.056-.2.084-.307h0a1.4,1.4,0,0,0,.056-.335c.028-.084.028-.2.056-.335a1.415,1.415,0,0,0,.056-.363,2.064,2.064,0,0,0,.056-.335h0c.028-.112.028-.223.056-.335.028-.14.028-.251.056-.335q.126-.88.168-1.76c.028-.586.028-1.145,0-1.732-.028-.559-.056-1.117-.14-1.676-.056-.447-.14-.894-.223-1.341q-1.424.587-2.765,1.005-1.466.461-2.849.754c-.922.2-1.788.363-2.653.475-.838.112-1.676.168-2.458.2s-1.536.028-2.234,0a12.162,12.162,0,0,1-1.983-.112Zm16.73-3.184c-.168.112-.335.223-.531.335a2.563,2.563,0,0,1-.391.2,14.144,14.144,0,0,1,.251,1.508h0c.084.587.112,1.173.14,1.76s.028,1.2,0,1.815-.084,1.229-.168,1.843c-.028.14-.028.251-.056.363a2.329,2.329,0,0,1-.056.363,2.319,2.319,0,0,0-.056.363c-.028.112-.028.223-.056.363-.028.084-.028.2-.056.307a2.493,2.493,0,0,0-.056.307c-.028.056-.028.14-.056.223l.112-.028h.028c.112-.028.251-.028.419-.056.14-.028.279-.028.419-.056.14,0,.279-.028.419-.028h.615l.028-.028a.743.743,0,0,0,.168-.14.609.609,0,0,0,.14-.223,1.183,1.183,0,0,0,.112-.335,2.171,2.171,0,0,0,.056-.447v-.028h0v-.084h0v-.14c.028-.363.056-.726.084-1.061.028-.447.056-.866.112-1.285.028-.447.056-.894.084-1.313.028-.447.056-.894.084-1.313s.056-.838.056-1.229c.028-.419.028-.81.056-1.2s.028-.782.056-1.145c0-.391.028-.754.028-1.117q.084-2.849,0-5.2c-.056-1.536-.168-2.9-.307-4.106a17.108,17.108,0,0,0-.614-2.961h0a5.446,5.446,0,0,0-.726-1.564c0,.028-.028.028-.028.056a1.333,1.333,0,0,0-.223.447,6.974,6.974,0,0,0-.223.7c-.056.279-.14.614-.2.95-.056.391-.112.81-.168,1.285s-.084.978-.112,1.536-.056,1.145-.084,1.76c-.028.587-.028,1.229-.028,1.871.2.168.391.335.587.531a5.352,5.352,0,0,1,.391.419h0l.2.223c.168.223.335.447.475.67a3.753,3.753,0,0,1,.335.67c.056.14.112.307.168.447a2.616,2.616,0,0,1,.112.447c.028.14.028.307.056.447a2.4,2.4,0,0,1-.028.447c-.028.14-.056.307-.084.447a2.46,2.46,0,0,1-.14.419,3.054,3.054,0,0,1-.223.419,3.4,3.4,0,0,1-.279.391,5.374,5.374,0,0,1-.391.419,3.09,3.09,0,0,1-.447.335Zm-4.273-8.547a17.463,17.463,0,0,1,1.732.642,8.491,8.491,0,0,1,1.005.531c0-.5.028-.978.028-1.452.028-.615.056-1.2.084-1.732.028-.559.084-1.061.112-1.536.056-.475.112-.894.168-1.285q.084-.461.168-.838c.056-.251.14-.5.2-.7a4.766,4.766,0,0,1,.2-.5c-1.089.112-2.179.2-3.24.251-1.229.084-2.486.14-3.715.168s-2.458.028-3.659,0-2.4-.112-3.6-.223-2.374-.279-3.519-.5a33.1,33.1,0,0,1-3.38-.81,31.275,31.275,0,0,1-3.212-1.145,21.158,21.158,0,0,1-2.4-1.173l.028.084c.056.14.112.279.2.447.056.14.14.279.223.447.084.2.168.391.251.559.112.2.2.391.279.559s.168.363.279.559a3.332,3.332,0,0,1,.223.447c.2-.028.391-.028.559-.056h0c.447-.056.894-.084,1.369-.112a1.419,1.419,0,0,1,.475.084,1.535,1.535,0,0,1,.391.251,1.6,1.6,0,0,1,.307.307c.084.112.168.2.251.307a4.076,4.076,0,0,1,.251.363,3.057,3.057,0,0,1,.223.419c.084.14.14.307.223.475a2.976,2.976,0,0,1,.2.531,5.522,5.522,0,0,1,.223.726c.084.251.14.531.223.81.056.279.14.586.2.866.056.251.084.5.14.726h3.184q1.676,0,3.184.084c1.033.056,2.039.112,2.989.168.95.084,1.843.168,2.709.279.838.112,1.62.251,2.346.391.782.223,1.48.391,2.123.586Zm-46.532-14.887.251.587v.028h0l.056.168h0c.112.307.2.615.279.894a5.6,5.6,0,0,0,.279.726c.084.223.2.419.279.614a4.86,4.86,0,0,0,.307.5h0l.335.419a2.879,2.879,0,0,0,.419.391,1.551,1.551,0,0,0,.223.168l-.028-.028c-.168-.335-.307-.642-.475-.978-.168-.363-.335-.67-.5-.978s-.335-.642-.5-.95c-.279-.531-.614-1.033-.922-1.564Zm-.838-3.072a3.056,3.056,0,0,1,.168.307,1.861,1.861,0,0,1,.168.335c.168.251.363.5.531.782s.363.559.531.866c.2.307.363.642.559.95.168.307.363.642.559,1.005.168.335.363.7.559,1.033.2.363.363.726.559,1.089s.363.754.531,1.117.335.7.5,1.061c.391.223.81.447,1.285.67a11.294,11.294,0,0,0,1.648.615c.614.2,1.257.363,2.011.531.726.14,1.536.279,2.458.391.81.084,1.676.168,2.6.223.95.056,1.955.084,3.072.084,1.089,0,2.262-.028,3.547-.056,1.145-.056,2.374-.112,3.687-.2l-.112-.2-.279-.559-.279-.559a4.787,4.787,0,0,0-.251-.531c-.056-.14-.14-.307-.2-.475-.056-.14-.14-.307-.2-.475-.084-.2-.168-.419-.251-.614a5.566,5.566,0,0,0-.279-.587v-.028h0v-.028a1.922,1.922,0,0,1-.084-.223.756.756,0,0,1-.084-.223h0c-.056-.112-.084-.2-.112-.251-.028-.084-.084-.168-.112-.251-.028-.056-.056-.14-.112-.251a1.762,1.762,0,0,1-.112-.251l-.112-.279h0a2.594,2.594,0,0,0-.14-.279c-.223-.447-.447-.922-.67-1.369-.251-.475-.5-1.005-.782-1.536-.279-.559-.587-1.089-.894-1.62-.307-.559-.642-1.117-.95-1.676l-.084-.168h0c-.028-.056-.028-.112-.056-.168h0c0-.056-.028-.112-.028-.168a1129.579,1129.579,0,0,0-.056-.279h0l-1.7-.084-1.788-.084c-.614-.028-1.2-.028-1.788-.056s-1.173-.028-1.76-.056c-1.229-.028-2.43-.056-3.6-.112-1.2-.056-2.4-.084-3.575-.168-1.173-.056-2.374-.168-3.547-.279-1.117-.112-2.207-.223-3.3-.391,0,.028,0,.028.028.056.056.112.112.251.2.391h0a4.854,4.854,0,0,0,.307.5c.112.2.251.391.391.586s.279.391.447.587c.056.056.112.084.168.14s.14.112.2.168a1.214,1.214,0,0,1,.168.2c.056.084.112.14.168.223l.168.251a.507.507,0,0,0,.084.363Z" transform="translate(-83.3 -313.224)" fill-rule="evenodd"/>
    <g id="Ellipse_3" data-name="Ellipse 3" transform="translate(1 1)" fill="none" stroke="#000" stroke-width="1">
      <circle cx="49" cy="49" r="49" stroke="none"/>
      <circle cx="49" cy="49" r="48.5" fill="none"/>
    </g>
  </g>
</svg>
