<svg xmlns="http://www.w3.org/2000/svg" xmlns:xlink="http://www.w3.org/1999/xlink" width="100" height="100" viewBox="0 0 100 100">
  <defs>
    <clipPath id="clip-icon-accessories">
      <rect width="100" height="100"/>
    </clipPath>
  </defs>
  <g id="icon-accessories" clip-path="url(#clip-icon-accessories)">
    <path id="Path_13" data-name="Path 13" d="M523.245,455.129c5.026.609,8.651,2.381,8.651,4.471,0,2.593-5.582,4.682-12.46,4.682s-12.46-2.09-12.46-4.682c0-2.169,3.915-3.995,9.233-4.524l-4.55-5.794h15.529l-3.942,5.847ZM507.9,431.267c4.127,2.249,7.116,8.783,7.116,16.508v.767h-4.868l.847,1.085,3.386,4.312c-.053.212-.106.45-.159.661a19.776,19.776,0,0,0-5.053,1.508c-1.878.926-2.99,2.116-2.99,3.466,0,1.429,1.243,2.672,3.333,3.624a7.146,7.146,0,0,1-4.682,1.931c-2.513,0-4.815-1.534-6.614-4.074l.079-.132a25.914,25.914,0,0,0,2.275-11.111,27.915,27.915,0,0,0-1.481-9.233,14.9,14.9,0,0,0-2.064-3.995,11.5,11.5,0,0,1,5.159-5.529l-3.73-21.455h12.778L507.9,431.267Zm-13.466,3.889c3.016,1.984,5.212,7.778,5.212,14.6,0,8.466-3.36,15.344-7.513,15.344s-7.513-6.878-7.513-15.344c0-7.09,2.354-13.069,5.582-14.815l-2.751-18.995h9.365l-2.381,19.207Z" transform="translate(-455.395 -387.58)" fill-rule="evenodd"/>
    <g id="Ellipse_19" data-name="Ellipse 19" transform="translate(1 1)" fill="none" stroke="#000" stroke-width="1">
      <circle cx="49" cy="49" r="49" stroke="none"/>
      <circle cx="49" cy="49" r="48.5" fill="none"/>
    </g>
  </g>
</svg>
