<svg xmlns="http://www.w3.org/2000/svg" xmlns:xlink="http://www.w3.org/1999/xlink" width="100" height="100" viewBox="0 0 100 100">
  <defs>
    <clipPath id="clip-icon-cabinet">
      <rect width="100" height="100"/>
    </clipPath>
  </defs>
  <g id="icon-cabinet" clip-path="url(#clip-icon-cabinet)">
    <path id="Path_14" data-name="Path 14" d="M586.018,417.362a10.151,10.151,0,0,0,1.764-.744c.083-.165.413-.083.441-.276,0-.11-.248-.3-.413-.469a3.857,3.857,0,0,1-1.1.386c-.827.193-1.075.469-1.13,1.654s-.248,1.405-1.957,2.039c-1.736.634-3.417,1.433-2.756,2.48a1.452,1.452,0,0,1-.138,1.819l-38-6.642c.028-.138.055-.276.083-.386l37.4,6.531a1.452,1.452,0,0,0,.138-1.819c-.661-1.02,1.02-1.846,2.756-2.48s1.929-.854,1.957-2.039c.055-1.185.3-1.461,1.13-1.653.138-.028.248-.055.358-.083.634.083,1.075.138,1.213.165-.055-.083-.11-.138-.083-.165.083-.083.606-.138.606-.386s-.386-.331-.579-.606a1.876,1.876,0,0,0-1.516-.579,32.806,32.806,0,0,1-6.862-.689c-2.177-.524-11.3-2.122-13.531-2.2-2.232-.055-6.283-.331-7.634-.827a5.42,5.42,0,0,0-2.756-.524c-.882.083-1.516.11-1.626.386s.165.827-.882,1.13-4.464,1.3-5.484,2.343a6.37,6.37,0,0,1-2.921,1.984,10.773,10.773,0,0,0-2.866.937c-.413.331-.276.331-.083.606.193.248.193.22.11.413s-.331.386-.028.689c.331.276.551.248,1.157.3.579.055,1.35.22,1.35.22a6.289,6.289,0,0,1-.524,3.307,14.111,14.111,0,0,0-1.488,4.63,51.479,51.479,0,0,0,.937,7.523c.276,1.185,3.142,14.22,3.362,15.846a7.993,7.993,0,0,1-.469,4.575c-.689,1.157-1.323.882-1.213,1.543a.8.8,0,0,0,.854.744,4.125,4.125,0,0,0,1.957-3,41.857,41.857,0,0,0,0-4.988c0-.579-.083-.854-.055-.8s8.074.441,12.9,1.929c4.823,1.516,15.267,5.153,15.405,6.421s-.3,4.96,0,7.248.716,3.087,1.461,3.169a1,1,0,0,0,.992-1.3c-.138-.606-1.213-1.571-1.323-3.224-.083-1.654,1.02-11.547,1.13-11.933.138-.386,2.453-3.5,3.527-4.023,1.075-.551,1.268-.634,1.268-.634s-.524,3.5.138,5.374c.689,1.874,1.406,1.709,1.984,1.736s.634-.441.634-.882-1.1-.469-1.35-1.158a18.454,18.454,0,0,1,.358-7.138c.717-3.142,2.425-11.63,2.673-13.641.276-2.012.937-4.712-.11-7.771-.992-3.031-1.295-3.913-1.157-5.071Zm-10.031,39.326.964-13.366s-1.35,13.118-.964,13.366Zm7.248-12.07s.964-8.02,1.323-10.169,1.13-7.138.606-9.452c-.524-2.343-1.3-2.866-1.3-2.866s.3,2.949-1.213,2.894-2.067-.22-2.976.937c-.909,1.13-.468,1.6-.468,1.6a54.206,54.206,0,0,1,.937,9.067,48.568,48.568,0,0,1-1.02,7.964l4.106.028Zm-27.668-5.346-1.157-14.909a9.76,9.76,0,0,0-4.575-1.681c-2.4-.11-2.315-.083-2.756.193a7.539,7.539,0,0,0-2.15,6.256c.331,3.693,2.37,17.94,2.37,17.94s5.925-2.811,7.275-5.208c1.405-2.4.992-2.59.992-2.59Zm21,4.905s.964-8.543.358-11.63-1.653-5.1-5.236-5.76-8.46-.138-10.885-.5a19.367,19.367,0,0,1-4.3-1.213l.441,13.2s2.342,2.342,8.378,3.886a80.3,80.3,0,0,0,11.244,2.012Z" transform="translate(-514.641 -388.528)" fill-rule="evenodd"/>
    <g id="Ellipse_20" data-name="Ellipse 20" transform="translate(1 1)" fill="none" stroke="#000" stroke-width="1">
      <circle cx="49" cy="49" r="49" stroke="none"/>
      <circle cx="49" cy="49" r="48.5" fill="none"/>
    </g>
  </g>
</svg>
