<svg xmlns="http://www.w3.org/2000/svg" xmlns:xlink="http://www.w3.org/1999/xlink" width="100" height="100" viewBox="0 0 100 100">
  <defs>
    <clipPath id="clip-icon-office">
      <rect width="100" height="100"/>
    </clipPath>
  </defs>
  <g id="icon-office" clip-path="url(#clip-icon-office)">
    <path id="Path_16" data-name="Path 16" d="M231.072,421.419a1.638,1.638,0,0,0,.17-.606c0-.3-.4-.3-.4-.3a.992.992,0,0,1-.057-.3.616.616,0,0,1,.057-.246,4.58,4.58,0,0,1,2.31-2.385,4.672,4.672,0,0,1,2.707.189,1.712,1.712,0,0,1,.719.4,23.161,23.161,0,0,0,1.458-4.543,14.791,14.791,0,0,0,.133-3.748,4.073,4.073,0,0,1-.057-2.082,1.889,1.889,0,0,1,1.42-.909l7.5,1.212a.942.942,0,0,1,.549.53,3.031,3.031,0,0,1,.114,1.117,40.576,40.576,0,0,1-.189,5.679,27.929,27.929,0,0,1-1.06,4.846,4.349,4.349,0,0,1,.833.719c-2.631.151-6.247.322-8.708.379-2.5.057-5.017.076-7.5.057Zm-21.335-.644-13.327,7.97v2.026c1.571.738,5.6,1.022,7.5,1.23v15.485c-1.1,1.76.151,3.029,2.026,3.029,1.893,0,3.2-1.193,2.139-3.029L208.2,432.4h.757c12.172,1.079,18.363,1.628,24.572,1.609,6.209,0,12.57-.473,24.969-1.609h.757v15.144c-.53,0-1.609,2.707,2.082,2.707,1.647,0,3.881-1,2.234-2.859V432.02a40.564,40.564,0,0,0,7.8-1.458v-1.8l-8.519-5.509-.246,1.685c.568.114,1.685.379,1.685,1.117,0,.435-.435.776-1.117.984a9.16,9.16,0,0,1-4.3,0c-.682-.208-1.117-.549-1.117-.984s.435-.776,1.117-.984a7.5,7.5,0,0,1,2.253-.265l.341-2.442L258.9,420.7c-8.651.8-16.167,1.249-23.455,1.325-1.306.019-2.612.019-3.919.019-7.08-.095-14.065-.492-21.789-1.268Zm-.776,12.381-.095,14.406c2.556.189,14.16,1.022,25.8,1,10.715-.019,21.259-.89,23.815-1.117V433.175c-12.381,1.136-18.722,1.59-24.969,1.609-6.247-.019-12.418-.568-24.553-1.628Zm53.214-7.932,1.571-10.677a1.459,1.459,0,0,0-.019-.568.516.516,0,0,0-.284-.284l-9.257-2.4c-.379-.114-3.124-.682-3.218-.8a1.991,1.991,0,0,0-.8-.341c-1.117-.076-1.874,1.212-2.272,2.082,1.079,1.117,2.953.833,4.316.454,0,0-.17-.852.189-.984a4.289,4.289,0,0,1,1.95.189l8.632,2.461-1.514,10.79c-.133,0-.284-.019-.435-.019-1.59,0-2.9.4-2.9.871s1.287.871,2.9.871,2.9-.4,2.9-.871c-.038-.341-.757-.644-1.761-.776Z" transform="translate(-183.41 -378.88)" fill-rule="evenodd"/>
    <g id="Ellipse_14" data-name="Ellipse 14" transform="translate(1 1)" fill="none" stroke="#000" stroke-width="1">
      <circle cx="49" cy="49" r="49" stroke="none"/>
      <circle cx="49" cy="49" r="48.5" fill="none"/>
    </g>
  </g>
</svg>
