<svg xmlns="http://www.w3.org/2000/svg" xmlns:xlink="http://www.w3.org/1999/xlink" width="100" height="100" viewBox="0 0 100 100">
  <defs>
    <clipPath id="clip-icon-sofa">
      <rect width="100" height="100"/>
    </clipPath>
  </defs>
  <g id="icon-sofa" clip-path="url(#clip-icon-sofa)">
    <g id="Group_1" data-name="Group 1" transform="translate(-721.341 237.246)">
      <path id="Path_2" data-name="Path 2" d="M80.466,355.425a3.516,3.516,0,0,1,.276.387,2.278,2.278,0,0,1,.313,1.178c0,.589,0,1.234-.037,1.841-.018.626-.055,1.234-.092,1.731-.018.313-.166.5.055.81a.7.7,0,0,0,.368.258c2.025,0,4,.018,5.892.018,5.947.018,10.919.037,13.221.037a9.449,9.449,0,0,0,2.872-.681,6.188,6.188,0,0,0,2.431-1.694c.092-.129.258-.331.405-.534a1.413,1.413,0,0,0,.221-.46c0-.018-.037,0-.074-.018h0a1.012,1.012,0,0,1-.166-.129h0a.385.385,0,0,1-.074-.11l-.368-.681a4.27,4.27,0,0,0-.644-.9,2.889,2.889,0,0,0-.755-.589,13.775,13.775,0,0,0-1.786-.773,6.511,6.511,0,0,0-1.86-.35c-3.02-.129-6.279-.129-9.538-.055s-6.518.2-9.556.313a2.049,2.049,0,0,0-1.013.368c-.037,0-.055.018-.092.037ZM48.317,368.3v-.313l-3.738.092v.2a2.222,2.222,0,0,0,.387.516,1.5,1.5,0,0,0,.534.35l.11.018h1.473a1.489,1.489,0,0,0,.755-.331,1.511,1.511,0,0,0,.479-.534Zm0-.5h0l62.329.074v.037l3.738.018v-.037h.718c.534,0,.994-.331,1.4-1.05a10.29,10.29,0,0,0,.976-3.406,12.693,12.693,0,0,0-.018-3.646,14.031,14.031,0,0,0-.865-3.167l-.018-.055h-.221a11.6,11.6,0,0,0-5.008.884,28.173,28.173,0,0,0-6.132,3.683l-.092.055a4.767,4.767,0,0,1-3.406,1.05h-1.234a2.383,2.383,0,0,1-.516,0c-2.486,0-7.181-.018-12.724-.037-8.765-.037-19.628-.074-27.1-.055a8.16,8.16,0,0,1-2.228-.331,11.428,11.428,0,0,1-2.78-1.289c-.35-.221-.387-.239-.479-.295a23.4,23.4,0,0,0-3.609-2.007,23.9,23.9,0,0,0-2.486-.847c-.957-.276-2.025-.534-3.149-.773a6.878,6.878,0,0,0-.792-.074,5.149,5.149,0,0,1-1.676-.276c-.092.239-.221.534-.35.829h0a11.421,11.421,0,0,0-.5,1.215,13.65,13.65,0,0,0-.387,3.9,10.67,10.67,0,0,0,.718,3.517,6.432,6.432,0,0,0,.847,1.639,1.629,1.629,0,0,0,1.289.552h0l3.756-.111Zm62.329.295v.2h0a2.378,2.378,0,0,0,.5.608,1.39,1.39,0,0,0,.737.295h1.473l.11-.018a1.789,1.789,0,0,0,.534-.35,2.221,2.221,0,0,0,.387-.516h0v-.2l-3.738-.018Zm5.874-12.079a1.028,1.028,0,0,0-.147-.092c-.626-.387-1.252-.81-1.86-1.252-.552-.387-1.1-.81-1.639-1.234-.055.055-.092.11-.147.166a7.761,7.761,0,0,1-2.136,1.86c-.663.424-1.123.7-1.547.957a19.614,19.614,0,0,0-2.265,1.528.466.466,0,0,1,.166.368h0a1.616,1.616,0,0,1-.313.755,6.324,6.324,0,0,1-.442.571,1.827,1.827,0,0,1-.184.2,25.9,25.9,0,0,1,5.119-2.928,12.14,12.14,0,0,1,5.248-.921h.055a.2.2,0,0,0,.092.018Zm-3.885-3.13a6.513,6.513,0,0,0,.681-1.086,15.735,15.735,0,0,0,.663-1.528l-.037.018-.055.018a4.951,4.951,0,0,1-1.565.221,3.486,3.486,0,0,1-.737-.147,2.561,2.561,0,0,1-.663-.276.866.866,0,0,0-.35-.055,1.385,1.385,0,0,1-.479-.092,2.364,2.364,0,0,1-.276-.184,1.026,1.026,0,0,0-.35-.166.273.273,0,0,0-.129-.018.474.474,0,0,1-.424-.184,3.259,3.259,0,0,0-.792-.718,2.077,2.077,0,0,0-.847-.35c-.313-.055-.331-.129-.35-.331,0-.037-.018-.129-.387-.46-.129-.11-.276-.239-.405-.368s-.258-.239-.368-.368c-.037-.037-.055.092-.221.2h0l-.074.055a.971.971,0,0,1-.405.147.69.69,0,0,1-.2.018c-.055.35-.166.755-.276,1.215a16.026,16.026,0,0,0-.424,2.081,14.985,14.985,0,0,0,.018,2.744c.018.295.037.571.055.865a2.035,2.035,0,0,1-.037.681,1.539,1.539,0,0,1-.147.368,4.857,4.857,0,0,1,.534.276,2.983,2.983,0,0,1,.9.7,5.455,5.455,0,0,1,.737,1.013l.221.424a20.549,20.549,0,0,1,2.338-1.565c.424-.239.884-.534,1.528-.939a7.045,7.045,0,0,0,2.007-1.749,1.123,1.123,0,0,1,.313-.46Zm-8.341-5.671.055-.35a4.32,4.32,0,0,1,.276-.865c.11-.239.239-.46.368-.681a2.569,2.569,0,0,0-.81.037c-.129.018-.239.037-.35.055a5.016,5.016,0,0,1-1.252.11h0l-.331-.018h0c-.516-.018-1.013-.018-1.528-.037-.792-.018-1.584-.018-2.431-.074a7.963,7.963,0,0,1-2.154-.5,11.275,11.275,0,0,0-1.123-.331h0l-.147-.037c-.589-.147-.957-.221-1.031.018a4.166,4.166,0,0,0-.018,2.025,7.536,7.536,0,0,1,.092,1.694,20.062,20.062,0,0,1-.387,2.1,11.015,11.015,0,0,1-.7,1.989,7.316,7.316,0,0,1-.368.644,5.861,5.861,0,0,0-.442.81.671.671,0,0,0-.037.276v.037c2.983-.055,5.966-.037,8.728.074a7.316,7.316,0,0,1,2.007.387c.276.092.552.2.829.313a.626.626,0,0,0,.129-.276,1.643,1.643,0,0,0,.018-.534c0-.239-.037-.534-.055-.829a16.2,16.2,0,0,1-.018-2.854,16.54,16.54,0,0,1,.442-2.154c.092-.368.166-.737.239-1.031Zm-1.915-2.265a1.05,1.05,0,0,0,.018-.239,6.974,6.974,0,0,1,.092-.718,5.917,5.917,0,0,1,.276-.81h0a4.468,4.468,0,0,0,.184-.516c.037-.147.055-.295.092-.442a11.546,11.546,0,0,1,.387-1.676c-.055.018-.11.037-.184.055-.35.092-.46.129-.589.166-.829.221-1.639.442-2.523.608-.442.074-.921.2-1.418.313-.424.11-.865.221-1.344.313a20.377,20.377,0,0,1-2.044.313c-.571.055-1.142.074-1.657.074-.018.055-.037.129-.055.2a5.121,5.121,0,0,0-.221,1.178,2.748,2.748,0,0,0,.037.387c.295-.424.792-.313,1.565-.129l.147.037h0c.387.092.773.221,1.16.331a7.2,7.2,0,0,0,2.007.46c.865.037,1.639.055,2.412.074.571-.018,1.123,0,1.657.018Zm-9.17-2.909c0-.11.018-.239.018-.35a2.983,2.983,0,0,1,.018-.405c0-.129,0-.221-.037-.239h0c-.037-.018-.147,0-.331.074a10.1,10.1,0,0,1-2.725.516l-.387.037a6.691,6.691,0,0,0-1.252.276,7.214,7.214,0,0,1-2.523.35.236.236,0,0,1-.129-.018,12.048,12.048,0,0,0-2.8.2c-.516.055-1.013.11-1.528.129-.405.018-.81.037-1.234.037-.018.516-.037,1.1-.074,1.694a30.28,30.28,0,0,0-.055,3.793,11.054,11.054,0,0,1-.092,3.443,10.983,10.983,0,0,0-.166,2.062,2.06,2.06,0,0,0,.166.718,2.886,2.886,0,0,1,.147.571h0a2.454,2.454,0,0,1,1.271-.442c3.02-.129,6.3-.258,9.575-.313h.295v-.037a1.373,1.373,0,0,1,.074-.479,5.534,5.534,0,0,1,.5-.921c.129-.2.239-.387.35-.589a9.829,9.829,0,0,0,.663-1.878,15.887,15.887,0,0,0,.368-2.044,6.4,6.4,0,0,0-.092-1.547,10.146,10.146,0,0,1-.11-1.05c-.037-.313-.092-.571-.147-.829a4.974,4.974,0,0,1-.147-1.05,5.124,5.124,0,0,1,.239-1.326.922.922,0,0,0,.147-.387Zm-13.423.313a.785.785,0,0,0-.092-.442c-.055-.074-.166-.092-.331-.092-.773.018-1.455-.037-2.118-.074a15.659,15.659,0,0,0-2.633-.018.361.361,0,0,0-.184.055c-.239.092-.442.166-1.455-.2a1.443,1.443,0,0,0-.626-.037,5.381,5.381,0,0,1-.608.037,3.778,3.778,0,0,1-.81-.11,3.532,3.532,0,0,0-.552-.11c-.2-.018-.387-.037-.571-.055a21.11,21.11,0,0,1-4.29-.755.913.913,0,0,0-.313-.037.347.347,0,0,0-.147.037h-.018v.018h0a9.272,9.272,0,0,0,.147,1.123c.11.534.46.939.424,1.271a3,3,0,0,1-.2.773,2.666,2.666,0,0,1,.11.35,10.251,10.251,0,0,1,.055,1.418,16.647,16.647,0,0,0,.074,1.915c.074.516.147,1.068.239,1.6.037.239.074.479.129.81h0l.2,1.1c.147.755.276,1.51.424,2.283a1.926,1.926,0,0,1,.018.792c1.123.018,2.228.018,3.3.037,3.13.018,6,.037,8.8.331a1.78,1.78,0,0,1,.884.313.341.341,0,0,1-.037-.129,2.42,2.42,0,0,1-.184-.884,11.774,11.774,0,0,1,.166-2.154,10.818,10.818,0,0,0,.074-3.3,31.431,31.431,0,0,1,.055-3.867c.037-.755.055-1.436.074-2.007Zm-14.731.589a6.649,6.649,0,0,1-1.326-.221c-.147-.037-.313-.074-.534-.129a4.042,4.042,0,0,0-.552-.074c-.184-.018-.387-.018-.534-.018a9.565,9.565,0,0,1-1.749-.276c-.2-.037-.387-.074-.5-.092a31.305,31.305,0,0,1-4.161-1.1l-1.6-.5a.166.166,0,0,0-.092-.018c.037.147.074.387.147.681.074.313.166.7.295,1.123.055.184.092.313.129.424a10.3,10.3,0,0,1,.276,1.031,4.317,4.317,0,0,1,.865.331,4.533,4.533,0,0,0,1.86.534l1.178-.074a8.216,8.216,0,0,1,1.068.055,7.709,7.709,0,0,0,1.215.055,3.885,3.885,0,0,0,.939-.221,3.043,3.043,0,0,0,.847-.424,4.409,4.409,0,0,1,.829-.424,4.906,4.906,0,0,1,.9-.184h0a2.232,2.232,0,0,1,.331-.018,1.273,1.273,0,0,0,.166-.46Zm-10.348,1.326a5.431,5.431,0,0,1,.589,1.142,12.606,12.606,0,0,1,.921,3.572c.037.424.074.81.129,1.2a19.082,19.082,0,0,1,.166,3.554,2.755,2.755,0,0,0,0,.681.437.437,0,0,0,.166.276.517.517,0,0,0,.35.129,1.2,1.2,0,0,0,.479-.11,6.472,6.472,0,0,1,1.952-.552,15.785,15.785,0,0,1,2.688-.166c.442.018.921.018,1.4.018.81,0,1.62,0,2.265.055.147.018.239-.037.258-.129a1.5,1.5,0,0,0,0-.644c-.147-.755-.276-1.51-.423-2.283l-.2-1.1h0c-.037-.221-.092-.516-.129-.81-.092-.534-.184-1.068-.239-1.62-.074-.626-.074-1.344-.092-1.97a8.859,8.859,0,0,0-.055-1.326c-.037-.221-.147-.2-.331-.2h0a3.391,3.391,0,0,0-.773.147,2.49,2.49,0,0,0-.7.35,3.536,3.536,0,0,1-.994.479,6.454,6.454,0,0,1-1.031.239,9.224,9.224,0,0,1-1.344-.055,7.115,7.115,0,0,0-.976-.055l-1.178.074a4.79,4.79,0,0,1-2.118-.571,3.758,3.758,0,0,0-.773-.313Zm.773,3.554a3.983,3.983,0,0,0-.46.074c-.018,0-.055.018-.074.018l.442.331c.074.055.147.129.221.184a2.367,2.367,0,0,0-.074-.35c-.018-.092-.037-.184-.055-.258Zm-1.307.239a5.951,5.951,0,0,0-1.142-.387,7.807,7.807,0,0,0-1.418-.184.387.387,0,0,1-.368-.2c-.055.037-.11.092-.2.166a3.437,3.437,0,0,0-.5.681,1.206,1.206,0,0,1-.46.405,2.21,2.21,0,0,0-.313.2.56.56,0,0,0-.147.147,2.737,2.737,0,0,1-.516.424,9.237,9.237,0,0,1-1.473.7,10.118,10.118,0,0,1-1.657.5,1.052,1.052,0,0,0-.276.11h.018c.018,0,.037.018.055.018a.524.524,0,0,1,.368.239.991.991,0,0,1,.147.405,2.923,2.923,0,0,0,.129.368,3.9,3.9,0,0,0,.755,1.013,12.008,12.008,0,0,0,1.768,1.491,27.158,27.158,0,0,0,2.5,1.491,21.222,21.222,0,0,1,2.854,1.749,5.246,5.246,0,0,1,1.031-1.455,4.666,4.666,0,0,1,1.031-.792c-.018,0-.018-.018-.037-.018a.9.9,0,0,1-.35-.608,3.915,3.915,0,0,1,0-.81,19.913,19.913,0,0,0-.166-3.462c-.037-.313-.074-.644-.092-.939a4.437,4.437,0,0,0-.681-.626,9.384,9.384,0,0,0-.865-.626Zm-8.175,4c-.276.276-.608.608-.957.976-.442.479-.921,1.031-1.4,1.6h0c-.092.11-.166.2-.258.295h0c-.092.092-.166.184-.276.295a.406.406,0,0,0-.11.368h0c.018.258.9.313,1.639.368a5.2,5.2,0,0,1,.865.092c1.142.239,2.228.5,3.185.773a25.514,25.514,0,0,1,2.559.865,25.307,25.307,0,0,1,3.7,2.044l.387.239c-.35-.276-.7-.571-1.031-.884a.739.739,0,0,1-.184-.865c.037-.11.055-.221-.037-.295a22.584,22.584,0,0,0-2.928-1.823,26.292,26.292,0,0,1-2.541-1.51,12.3,12.3,0,0,1-1.86-1.565,5.2,5.2,0,0,1-.755-.976Zm68.074-1.841Zm-59.364,7.6a.943.943,0,0,1-.018.552.309.309,0,0,0,.037.331,12.736,12.736,0,0,0,2.173,1.676,11.946,11.946,0,0,0,2.412,1.16,6.764,6.764,0,0,0,.847.055c5.285-.018,12.282,0,19.021.037a1.561,1.561,0,0,0,.865-.387,1.051,1.051,0,0,0,.368-.7c.037-.516.055-1.123.092-1.731.018-.626.037-1.252.037-1.823a1.862,1.862,0,0,0-.239-.9,3.378,3.378,0,0,0-.5-.608c-.055-.037-.11-.092-.166-.129a1.491,1.491,0,0,0-.921-.442c-2.762-.295-5.634-.313-8.746-.331-1.178,0-2.394-.018-3.664-.037a.84.84,0,0,1-.5.074c-.626-.055-1.418-.055-2.228-.055-.479,0-.976,0-1.418-.018a14.666,14.666,0,0,0-2.6.166,6.324,6.324,0,0,0-1.786.5,1.585,1.585,0,0,1-.552.166,3.848,3.848,0,0,0-1.473.957,4.248,4.248,0,0,0-1.05,1.491Zm25.778,3.738-.055.055h.092c-.018-.018-.037-.037-.037-.055Z" transform="translate(691.307 -542.31)" fill-rule="evenodd"/>
    </g>
    <g id="Ellipse_2" data-name="Ellipse 2" transform="translate(1 1)" fill="none" stroke="#000" stroke-width="1">
      <circle cx="49" cy="49" r="49" stroke="none"/>
      <circle cx="49" cy="49" r="48.5" fill="none"/>
    </g>
  </g>
</svg>
