<svg xmlns="http://www.w3.org/2000/svg" xmlns:xlink="http://www.w3.org/1999/xlink" width="100" height="100" viewBox="0 0 100 100">
  <defs>
    <clipPath id="clip-icon-light">
      <rect width="100" height="100"/>
    </clipPath>
  </defs>
  <g id="icon-light" clip-path="url(#clip-icon-light)">
    <g id="Group_2" data-name="Group 2" transform="translate(-368.596 -435.303)">
      <path id="Path_18" data-name="Path 18" d="M398.642,459.837c3.241,0,.936.168,1.921.216l.84-37.961a63.474,63.474,0,0,1-17.48-3.121c-2.425-.888-3.842-1.825-3.7-2.641a.819.819,0,0,1,.312-.5h0l6.867-8c6.267-1.345,13.95,1.008,17.6,3.145l1.585,9.316h0a.891.891,0,0,1,.12.528c-.144.792-1.7,1.225-4.178,1.273l-.048,37.865c3.505.192,5.955.672,5.955,1.2,0,.72-4.37,1.3-9.8,1.3s-9.8-.576-9.8-1.3,6.555-1.321,9.8-1.321Zm2.761-38.465.144-3a52.279,52.279,0,0,0-7.731-1.873,55.4,55.4,0,0,0-9.22-.864c-2.257.024-3.722.288-3.794.792-.1.5,1.2,1.225,3.313,1.993a53.935,53.935,0,0,0,9,2.233,51.219,51.219,0,0,0,8.284.72Zm1.128-2.761v2.881c2.161-.048,3.506-.312,3.6-.792.1-.5-1.2-1.225-3.313-1.993-.1-.024-.192-.072-.288-.1Z" transform="translate(16.018 51.842)" fill-rule="evenodd"/>
      <path id="Path_19" data-name="Path 19" d="M399.1,416.17h12.269l3.674,14.694h-8.116l-.7,1.825,6.339,17.528h-2.137l-4.37-12.1-.192,12.1h-1.945l.192-12.077-4.682,12.077h-2.161l6.795-17.576-.624-1.777H395.09Z" transform="translate(31.857 64.079)" fill-rule="evenodd"/>
    </g>
    <g id="Ellipse_15" data-name="Ellipse 15" transform="translate(1 1)" fill="none" stroke="#000" stroke-width="1">
      <circle cx="49" cy="49" r="49" stroke="none"/>
      <circle cx="49" cy="49" r="48.5" fill="none"/>
    </g>
  </g>
</svg>
