<svg xmlns="http://www.w3.org/2000/svg" xmlns:xlink="http://www.w3.org/1999/xlink" width="100" height="100" viewBox="0 0 100 100">
  <defs>
    <clipPath id="clip-icon-shocabinet">
      <rect width="100" height="100"/>
    </clipPath>
  </defs>
  <g id="icon-shocabinet" clip-path="url(#clip-icon-shocabinet)">
    <path id="Path_15" data-name="Path 15" d="M177.207,409.41v37.322h37.448v21.246H177.207v1.954h37.448v4.161H153.25V409.41Zm5.642,4.224h28.433v1.324H182.849v-1.324Zm3.688,3.909v1.229h6.4v-1.229h.977v1.229h6.4v-1.229h.977v1.229h6.4v-1.229h.977v1.229h2.679v.662h-2.679v2.143a1.064,1.064,0,0,1,.473.914,1.008,1.008,0,0,1-.473.883v1.166h-.946v-1.166a1.048,1.048,0,0,1-.473-.883,1.1,1.1,0,0,1,.473-.914v-2.143h-6.4v2.143a1.064,1.064,0,0,1,.473.914,1.008,1.008,0,0,1-.473.883v1.166h-.946v-1.166a1.048,1.048,0,0,1-.473-.883,1.1,1.1,0,0,1,.473-.914v-2.143h-6.4v2.143a1.064,1.064,0,0,1,.473.914,1.008,1.008,0,0,1-.473.883v1.166h-.946v-1.166a1.048,1.048,0,0,1-.473-.883,1.1,1.1,0,0,1,.473-.914v-2.143h-6.4v2.143a1.064,1.064,0,0,1,.473.914,1.008,1.008,0,0,1-.473.883v1.166h-.946v-1.166a1.048,1.048,0,0,1-.473-.883,1.1,1.1,0,0,1,.473-.914v-2.143h-2.679v-.662h2.679v-1.229h.851Zm-9.331,30.388v5.422h35.3V447.93Zm0,6.809v5.422h35.3v-5.422Zm0,6.9v5.422h35.3v-5.422Zm11.852-11.316H200.88v.6H189.059v-.6Zm0,6.84H200.88v.6H189.059v-.6Zm0,6.872H200.88v.6H189.059v-.6ZM155.992,467h18.5v5.422h-18.5V467Zm6.115,2.427h6.241v.6h-6.241v-.6Zm-6.115-9.331h18.5v5.422h-18.5V460.1Zm6.115,2.427h6.241v.6h-6.241v-.6Zm-6.115-9.2h18.5v5.422h-18.5V453.32Zm6.115,2.4h6.241v.6h-6.241v-.6Zm-6.115-43.847h18.5v38.016h-18.5V411.869Z" transform="translate(-133.655 -391.392)" fill-rule="evenodd"/>
    <g id="Ellipse_17" data-name="Ellipse 17" transform="translate(1 1)" fill="none" stroke="#000" stroke-width="1">
      <circle cx="49" cy="49" r="49" stroke="none"/>
      <circle cx="49" cy="49" r="48.5" fill="none"/>
    </g>
  </g>
</svg>
