<svg xmlns="http://www.w3.org/2000/svg" xmlns:xlink="http://www.w3.org/1999/xlink" width="100" height="100" viewBox="0 0 100 100">
  <defs>
    <clipPath id="clip-icon-barset">
      <rect width="100" height="100"/>
    </clipPath>
  </defs>
  <g id="icon-barset" clip-path="url(#clip-icon-barset)">
    <path id="Path_8" data-name="Path 8" d="M347.963,451.241c2.747.24,4.8,1.068,4.8,2.268s-2.791,2.333-6.236,2.333-6.236-1.134-6.236-2.333,2.05-2.028,4.8-2.268V419.732c-6.193-.174-10.99-1.417-10.99-2.944,0-1.635,5.56-2.965,12.407-2.965s12.407,1.33,12.407,2.965c0,1.526-4.775,2.769-10.924,2.944v31.508ZM321.47,428.3c.109,1.112,1.025,8.787,1.112,9.747.087.938.065,2.878.872,3.75.044.044.109.087.153.131l.065-.065c.065.131.349.2.763.2v-1.526c-.153-.065-.218-.131-.218-.2h0V427.451a5.466,5.466,0,0,1-.589-.087,16.4,16.4,0,0,1-2.66-.763,4.479,4.479,0,0,1,.5,1.7Zm7.5,13.279a51.074,51.074,0,0,0,5.1-.938.847.847,0,0,0,.087.109,1.537,1.537,0,0,0,.7-.894,28.115,28.115,0,0,0,.2-3.554s-.349-8.373-.371-9.071a2.13,2.13,0,0,0-.305-1.047,4.847,4.847,0,0,1-1.7.785l.022.349c-.109.131-.611.131-1.243.065-.327-.022-.676-.065-.959-.109a35.781,35.781,0,0,1-3.859.218v12.778c0,.065-.087.131-.24.2v1.4c.959-.044,1.962-.2,2.573-.283Zm-14.566-29.5c.109-.654,3.772-2.835,6.52-2.878a14.223,14.223,0,0,1,7.174,2.66c.458.545-1,5.211-1.243,6s-1.417,4.012-.589,4.754c.829.763,7.61.458,7.959.545a1.512,1.512,0,0,1,.829.72c.109,0,.392.218.458.85a1.422,1.422,0,0,1-.523.938,2.972,2.972,0,0,1,.5,1.308c.131,1.068.327,8.308.327,9.66a9.531,9.531,0,0,1-.349,3.6,2.59,2.59,0,0,1-1.134,1.112l.022.109s-.174.131-.218.153c-.044.044-.022.2-.022.2s-1.832.5-1.984.523-2.551.392-2.747.392-1.352.2-2.682.393c-.109.022-.2.022-.305.044v6.258c4.252.2,7.523,1.548,7.523,3.184,0,1.766-3.881,3.205-8.657,3.205s-8.657-1.439-8.657-3.205c0-1.679,3.445-3.053,7.828-3.205v-6.149a2.744,2.744,0,0,1-1.068-.2l.109-.24a4.544,4.544,0,0,1-.218-.414,2.634,2.634,0,0,1-1.2-1.832l-.044-.349s-1.265-10.946-1.483-12.189a5.331,5.331,0,0,0-.741-1.941,17.73,17.73,0,0,1-1.962-1.025l-.109-.218s-.349-.131-.349-.24.349-.2.349-.2.327-.327.436-.414-.044-.305-.109-.611a20.573,20.573,0,0,0-.959-2.05,28.589,28.589,0,0,1-.916-2.726c-.131-.48-.654-1.919-.829-2.464a17.135,17.135,0,0,1-.938-4.056ZM371.469,428.3c-.109,1.112-1.025,8.787-1.112,9.747-.087.938-.065,2.878-.872,3.75-.044.044-.109.087-.153.131l-.065-.065c-.065.131-.349.2-.763.2v-1.526c.153-.065.218-.131.218-.2h0V427.451a5.466,5.466,0,0,0,.589-.087,15.538,15.538,0,0,0,2.638-.763,4.92,4.92,0,0,0-.48,1.7Zm-7.479,13.279a51.072,51.072,0,0,1-5.1-.938.844.844,0,0,1-.087.109,1.537,1.537,0,0,1-.7-.894,28.114,28.114,0,0,1-.2-3.554s.349-8.373.371-9.071a2.129,2.129,0,0,1,.305-1.047,4.846,4.846,0,0,0,1.7.785l-.022.349c.109.131.611.131,1.243.065.327-.022.676-.065.938-.109a35.876,35.876,0,0,0,3.881.218v12.778c0,.065.087.131.24.2v1.4c-.959-.044-1.962-.2-2.573-.283Zm14.566-29.5c-.109-.654-3.772-2.835-6.52-2.878a14.223,14.223,0,0,0-7.174,2.66c-.458.545,1,5.211,1.243,6s1.417,4.012.589,4.754c-.829.763-7.61.458-7.959.545a1.511,1.511,0,0,0-.829.72c-.109,0-.414.218-.458.85a1.422,1.422,0,0,0,.523.938,2.973,2.973,0,0,0-.5,1.308c-.131,1.068-.327,8.308-.327,9.66a9.531,9.531,0,0,0,.349,3.6,2.59,2.59,0,0,0,1.134,1.112l-.022.109s.174.131.218.153c.044.044.022.2.022.2s1.832.5,1.984.523,2.551.392,2.747.392,1.352.2,2.682.393c.109.022.2.022.305.044v6.258c-4.252.2-7.523,1.548-7.523,3.184,0,1.766,3.881,3.205,8.657,3.205s8.657-1.439,8.657-3.205c0-1.679-3.445-3.053-7.828-3.205v-6.149a2.511,2.511,0,0,0,1.047-.2l-.109-.24a4.537,4.537,0,0,0,.218-.414,2.634,2.634,0,0,0,1.2-1.832l.044-.349s1.265-10.946,1.483-12.189a5.333,5.333,0,0,1,.741-1.941,17.726,17.726,0,0,0,1.962-1.025l.109-.218s.349-.131.349-.24-.349-.2-.349-.2-.327-.327-.436-.414.044-.305.109-.611a20.545,20.545,0,0,1,.959-2.05,28.589,28.589,0,0,0,.916-2.726c.131-.48.654-1.919.829-2.464a18.316,18.316,0,0,0,.959-4.056Z" transform="translate(-296.395 -382.2)" fill-rule="evenodd"/>
    <g id="Ellipse_9" data-name="Ellipse 9" transform="translate(1 1)" fill="none" stroke="#000" stroke-width="1">
      <circle cx="49" cy="49" r="49" stroke="none"/>
      <circle cx="49" cy="49" r="48.5" fill="none"/>
    </g>
  </g>
</svg>
